<svg width="29" height="30" viewBox="0 0 29 30" fill="none" xmlns="http://www.w3.org/2000/svg">
<path d="M28.1044 14.7551C28.1044 22.2456 22.0251 28.3248 14.5346 28.3248C7.0441 28.3248 0.964844 22.2456 0.964844 14.7551C0.964844 7.26455 7.0441 1.20703 14.5346 1.20703C22.0251 1.20703 28.1044 7.26455 28.1044 14.7551Z" fill="url(#paint0_linear_167_1327)"/>
<g opacity="0.5">
<path d="M14.5344 1.8386C21.9163 1.8386 27.9087 7.74416 28.0824 15.0827C28.0824 14.9741 28.1041 14.8656 28.1041 14.757C28.1041 7.26651 22.0249 1.20898 14.5344 1.20898C7.04385 1.20898 0.9646 7.26651 0.9646 14.757C0.9646 14.8656 0.986306 14.9741 0.986306 15.0827C1.16 7.74416 7.15241 1.8386 14.5344 1.8386Z" fill="#F2F2F2"/>
</g>
<path fill-rule="evenodd" clip-rule="evenodd" d="M28.9075 14.7559C28.9075 22.7023 22.4592 29.1507 14.5345 29.1507C6.58801 29.1507 0.139648 22.7023 0.139648 14.7559C0.139648 6.83115 6.58801 0.382812 14.5345 0.382812C22.4592 0.382812 28.9075 6.83115 28.9075 14.7559ZM0.964701 14.7559C0.964701 22.2464 7.04395 28.3257 14.5345 28.3257C22.025 28.3257 28.1042 22.2464 28.1042 14.7559C28.1042 7.26539 22.025 1.20786 14.5345 1.20786C7.04395 1.20786 0.964701 7.26539 0.964701 14.7559Z" fill="#1A1A1A"/>
<path d="M20.0488 12.2806H17.0309V9.24098C17.0309 7.87314 15.9019 6.74414 14.5341 6.74414C13.1445 6.74414 12.0372 7.87314 12.0372 9.24098V12.2806H8.99759C7.62976 12.2806 6.52246 13.3879 6.52246 14.7557C6.52246 16.1453 7.62976 17.2525 8.99759 17.2525H12.0372V20.2922C12.0372 21.66 13.1445 22.789 14.5341 22.789C15.9019 22.789 17.0309 21.66 17.0309 20.2922V17.2525H20.0488C21.4384 17.2525 22.5456 16.1453 22.5456 14.7557C22.5456 13.3879 21.4384 12.2806 20.0488 12.2806Z" fill="url(#paint1_linear_167_1327)"/>
<path fill-rule="evenodd" clip-rule="evenodd" d="M17.5528 9.24058V11.7374H20.0496C21.7214 11.7374 23.0675 13.1052 23.0675 14.7553C23.0675 16.4271 21.7214 17.7732 20.0496 17.7732H17.5528V20.2918C17.5528 21.9419 16.1849 23.3097 14.5349 23.3097C12.8631 23.3097 11.5169 21.9419 11.5169 20.2918V17.7732H8.99839C7.34831 17.7732 5.98047 16.4271 5.98047 14.7553C5.98047 13.1052 7.34831 11.7374 8.99839 11.7374H11.5169V9.24058C11.5169 7.56878 12.8631 6.22266 14.5349 6.22266C16.1849 6.22266 17.5528 7.56878 17.5528 9.24058ZM14.5349 6.74374C13.1453 6.74374 12.038 7.87274 12.038 9.24058V12.2802H8.99839C7.63056 12.2802 6.52326 13.3875 6.52326 14.7553C6.52326 16.1449 7.63056 17.2521 8.99839 17.2521H12.038V20.2918C12.038 21.6596 13.1453 22.7886 14.5349 22.7886C15.9027 22.7886 17.0317 21.6596 17.0317 20.2918V17.2521H20.0496C21.4392 17.2521 22.5464 16.1449 22.5464 14.7553C22.5464 13.3875 21.4392 12.2802 20.0496 12.2802H17.0317V9.24058C17.0317 7.87274 15.9027 6.74374 14.5349 6.74374Z" fill="white"/>
<defs>
<linearGradient id="paint0_linear_167_1327" x1="0.96658" y1="28.3285" x2="0.96658" y2="1.19878" gradientUnits="userSpaceOnUse">
<stop stop-color="#BDC3C7"/>
<stop offset="1" stop-color="#ECF0F1"/>
</linearGradient>
<linearGradient id="paint1_linear_167_1327" x1="6.51616" y1="22.7788" x2="6.51616" y2="6.74935" gradientUnits="userSpaceOnUse">
<stop offset="0.21" stop-color="#313131"/>
<stop offset="1" stop-color="#505050"/>
</linearGradient>
</defs>
</svg>
