<svg width="34" height="35" viewBox="0 0 34 35" fill="none" xmlns="http://www.w3.org/2000/svg">
<path fill-rule="evenodd" clip-rule="evenodd" d="M33.089 17.2182C33.089 17.3919 33.0673 17.5656 33.0673 17.7176C33.0673 17.7899 33.06 17.8623 33.0456 17.9347C33.06 17.9926 33.0673 18.0577 33.0673 18.1301C33.0673 18.2821 33.089 18.4558 33.089 18.6295C33.089 27.6615 25.7505 35 16.7184 35C7.68641 35 0.326172 27.6615 0.326172 18.6295C0.326172 18.4558 0.347878 18.2821 0.347878 18.1301C0.347878 18.0577 0.35511 17.9926 0.369585 17.9347C0.35511 17.8623 0.347878 17.7899 0.347878 17.7176C0.347878 17.5656 0.326172 17.3919 0.326172 17.2182C0.326172 8.18616 7.68641 0.847656 16.7184 0.847656C25.7505 0.847656 33.089 8.18616 33.089 17.2182ZM1.1512 17.2182C1.1512 17.457 1.17293 17.6959 1.19464 17.9347C1.17293 18.1518 1.1512 18.3906 1.1512 18.6295C1.1512 27.2055 8.12064 34.175 16.7184 34.175C25.2945 34.175 32.264 27.2055 32.264 18.6295C32.264 18.3906 32.2423 18.1518 32.2205 17.9347C32.2423 17.6959 32.264 17.457 32.264 17.2182C32.264 8.64211 25.2945 1.67268 16.7184 1.67268C8.12064 1.67268 1.1512 8.64211 1.1512 17.2182Z" fill="#3A2000"/>
<path d="M32.2641 18.6258C32.2641 27.2019 25.2947 34.1714 16.7186 34.1714C8.12081 34.1714 1.15137 27.2019 1.15137 18.6258C1.15137 10.028 8.12081 3.05859 16.7186 3.05859C25.2947 3.05859 32.2641 10.028 32.2641 18.6258Z" fill="#AD5E00"/>
<path d="M32.2641 17.2135C32.2641 25.8113 25.2947 32.7807 16.7186 32.7807C8.12081 32.7807 1.15137 25.8113 1.15137 17.2135C1.15137 8.63739 8.12081 1.66797 16.7186 1.66797C25.2947 1.66797 32.2641 8.63739 32.2641 17.2135Z" fill="url(#paint0_linear_167_1334)"/>
<g opacity="0.5">
<path d="M16.7179 2.14955C25.2288 2.14955 32.1331 8.98871 32.2634 17.4562C32.2634 17.3839 32.2634 17.3042 32.2634 17.2174C32.2634 8.6413 25.294 1.67188 16.7179 1.67188C8.12008 1.67188 1.15063 8.6413 1.15063 17.2174C1.15063 17.3042 1.15063 17.3839 1.15063 17.4562C1.2809 8.98871 8.20693 2.14955 16.7179 2.14955Z" fill="#F2F2F2"/>
</g>
<path d="M29.4638 17.2154C29.4638 24.2717 23.7536 29.9819 16.7191 29.9819C9.6628 29.9819 3.95264 24.2717 3.95264 17.2154C3.95264 10.1808 9.6628 4.4707 16.7191 4.4707C23.7536 4.4707 29.4638 10.1808 29.4638 17.2154Z" fill="url(#paint1_linear_167_1334)"/>
<path opacity="0.7" fill-rule="evenodd" clip-rule="evenodd" d="M29.4638 17.2154C29.4638 24.2717 23.7536 29.9819 16.7191 29.9819C9.6628 29.9819 3.95264 24.2717 3.95264 17.2154C3.95264 10.1808 9.6628 4.4707 16.7191 4.4707C23.7536 4.4707 29.4638 10.1808 29.4638 17.2154ZM4.40858 17.2154C4.40858 24.0112 9.92334 29.5259 16.7191 29.5259C23.4931 29.5259 29.0079 24.0112 29.0079 17.2154C29.0079 10.4414 23.4931 4.92664 16.7191 4.92664C9.92334 4.92664 4.40858 10.4414 4.40858 17.2154Z" fill="#A44D00"/>
<path d="M16.7191 4.4707C9.6628 4.4707 3.95264 10.1808 3.95264 17.2154C3.95264 17.4108 3.97436 17.5845 3.99608 17.7582C4.27833 10.9842 9.85821 5.55628 16.7191 5.55628C23.5582 5.55628 29.1381 10.9842 29.4421 17.7582C29.4421 17.5845 29.4638 17.4108 29.4638 17.2154C29.4638 10.1808 23.7536 4.4707 16.7191 4.4707Z" fill="#A44D00"/>
<path d="M25.5327 18.2971C25.5327 23.1822 21.5811 27.1121 16.7177 27.1121C11.8326 27.1121 7.90283 23.1822 7.90283 18.2971C7.90283 13.4337 11.8326 9.50391 16.7177 9.50391C21.5811 9.50391 25.5327 13.4337 25.5327 18.2971Z" fill="#A44D00"/>
<path d="M25.5327 17.2153C25.5327 22.1004 21.5811 26.0302 16.7177 26.0302C11.8326 26.0302 7.90283 22.1004 7.90283 17.2153C7.90283 12.3519 11.8326 8.40039 16.7177 8.40039C21.5811 8.40039 25.5327 12.3519 25.5327 17.2153Z" fill="url(#paint2_linear_167_1334)"/>
<path d="M11.6019 15.423C11.6019 15.423 11.5945 15.3937 11.5799 15.335C11.5652 15.269 11.5689 15.192 11.5909 15.104C11.6202 15.016 11.6862 14.9353 11.7889 14.862C11.8989 14.7887 12.0712 14.741 12.3059 14.719C12.5405 14.697 12.8045 14.6787 13.0979 14.664C13.3985 14.6493 13.6845 14.6347 13.9559 14.62C14.2345 14.6053 14.4619 14.5943 14.6379 14.587C14.8139 14.5797 14.9019 14.576 14.9019 14.576C14.9019 14.576 14.9495 14.5797 15.0449 14.587C15.1475 14.587 15.2649 14.6017 15.3969 14.631C15.5362 14.653 15.6609 14.7007 15.7709 14.774C15.8809 14.84 15.9469 14.939 15.9689 15.071C15.9909 15.203 15.9652 15.3057 15.8919 15.379C15.8185 15.4523 15.7305 15.5073 15.6279 15.544C15.5252 15.5733 15.4335 15.5917 15.3529 15.599C15.2722 15.6063 15.2319 15.61 15.2319 15.61L13.4719 15.709C13.4719 15.709 13.4829 15.7567 13.5049 15.852C13.5269 15.9473 13.5489 16.0573 13.5709 16.182C13.6002 16.2993 13.6185 16.402 13.6259 16.49C13.6332 16.5707 13.6405 16.677 13.6479 16.809C13.6552 16.9337 13.6625 17.0473 13.6699 17.15C13.6772 17.2453 13.6809 17.293 13.6809 17.293H14.4949C14.4949 17.293 14.5352 17.2967 14.6159 17.304C14.6965 17.304 14.7882 17.3187 14.8909 17.348C15.0009 17.37 15.0962 17.4067 15.1769 17.458C15.2575 17.5093 15.3015 17.5863 15.3089 17.689C15.3162 17.821 15.2649 17.92 15.1549 17.986C15.0522 18.052 14.9422 18.096 14.8249 18.118C14.7149 18.1327 14.6452 18.1437 14.6159 18.151C14.5939 18.151 14.5352 18.1547 14.4399 18.162C14.3445 18.162 14.2382 18.162 14.1209 18.162C14.0109 18.162 13.9119 18.162 13.8239 18.162C13.7359 18.162 13.6919 18.162 13.6919 18.162C13.6919 18.162 13.6919 18.217 13.6919 18.327C13.6992 18.4297 13.7065 18.5507 13.7139 18.69C13.7212 18.8293 13.7212 18.9503 13.7139 19.053C13.7139 19.1483 13.7102 19.2657 13.7029 19.405C13.6955 19.537 13.6882 19.6543 13.6809 19.757C13.6735 19.8523 13.6699 19.9 13.6699 19.9L15.1549 19.845C15.1549 19.845 15.2025 19.845 15.2979 19.845C15.3932 19.8377 15.5069 19.845 15.6389 19.867C15.7709 19.889 15.8882 19.933 15.9909 19.999C16.0935 20.065 16.1485 20.164 16.1559 20.296C16.1705 20.428 16.1339 20.5343 16.0459 20.615C15.9579 20.6957 15.8552 20.7543 15.7379 20.791C15.6205 20.8277 15.5142 20.8533 15.4189 20.868C15.3309 20.8753 15.2869 20.879 15.2869 20.879L12.9109 21C12.9109 21 12.8522 21 12.7349 21C12.6249 21.0073 12.4965 21 12.3499 20.978C12.2032 20.9487 12.0749 20.8937 11.9649 20.813C11.8549 20.725 11.8035 20.593 11.8109 20.417C11.8255 20.1823 11.8402 19.8157 11.8549 19.317C11.8695 18.811 11.8622 18.2207 11.8329 17.546C11.8035 16.8713 11.7265 16.1637 11.6019 15.423ZM20.3032 13.828C20.3032 13.828 20.3472 13.8353 20.4352 13.85C20.5305 13.8573 20.6369 13.8793 20.7542 13.916C20.8715 13.9453 20.9779 13.9967 21.0732 14.07C21.1759 14.136 21.2309 14.2313 21.2382 14.356C21.2455 14.4367 21.2565 14.6127 21.2712 14.884C21.2859 15.148 21.3005 15.4633 21.3152 15.83C21.3372 16.1967 21.3555 16.578 21.3702 16.974C21.3922 17.3627 21.4105 17.7293 21.4252 18.074C21.4399 18.4113 21.4509 18.6863 21.4582 18.899C21.4729 19.1117 21.4802 19.218 21.4802 19.218C21.4802 19.218 21.4765 19.262 21.4692 19.35C21.4692 19.438 21.4472 19.548 21.4032 19.68C21.3665 19.812 21.2969 19.9403 21.1942 20.065C20.9742 20.3363 20.6955 20.56 20.3582 20.736C20.0209 20.912 19.5589 21 18.9722 21C18.5835 21 18.2095 20.9267 17.8502 20.78C17.4982 20.6333 17.2085 20.4023 16.9812 20.087C16.7612 19.7643 16.6549 19.3463 16.6622 18.833C16.6695 18.4443 16.7539 18.1033 16.9152 17.81C17.0839 17.5167 17.3039 17.2747 17.5752 17.084C17.8465 16.886 18.1472 16.7393 18.4772 16.644C18.8145 16.5487 19.1519 16.501 19.4892 16.501L19.4122 14.598C19.4122 14.598 19.4049 14.565 19.3902 14.499C19.3755 14.4257 19.3829 14.3413 19.4122 14.246C19.4489 14.1507 19.5332 14.0627 19.6652 13.982C19.7972 13.9013 20.0099 13.85 20.3032 13.828ZM19.5222 17.458C19.3535 17.4433 19.1922 17.5057 19.0382 17.645C18.8842 17.7843 18.7559 17.964 18.6532 18.184C18.5579 18.3967 18.5102 18.6093 18.5102 18.822C18.5102 19.1373 18.5615 19.4087 18.6642 19.636C18.7742 19.8633 18.9172 19.977 19.0932 19.977C19.2105 19.977 19.3095 19.9293 19.3902 19.834C19.4709 19.7387 19.5332 19.6433 19.5772 19.548C19.6212 19.4453 19.6432 19.394 19.6432 19.394L19.5222 17.458Z" fill="#171616" fill-opacity="0.47"/>
<defs>
<linearGradient id="paint0_linear_167_1334" x1="1.1518" y1="32.7779" x2="1.1518" y2="1.66319" gradientUnits="userSpaceOnUse">
<stop stop-color="#BE6D00"/>
<stop offset="1" stop-color="#FFF57F"/>
</linearGradient>
<linearGradient id="paint1_linear_167_1334" x1="3.95937" y1="29.9725" x2="3.95937" y2="4.47222" gradientUnits="userSpaceOnUse">
<stop stop-color="#A75A00"/>
<stop offset="0.822" stop-color="#E8C13F"/>
</linearGradient>
<linearGradient id="paint2_linear_167_1334" x1="7.89458" y1="26.0361" x2="7.89458" y2="8.40864" gradientUnits="userSpaceOnUse">
<stop stop-color="#BE6D00"/>
<stop offset="1" stop-color="#FFF57F"/>
</linearGradient>
</defs>
</svg>
