<svg width="18" height="18" viewBox="0 0 18 18" fill="none" xmlns="http://www.w3.org/2000/svg">
<path d="M9.23331 0.0889405C8.95661 -0.0296468 8.64339 -0.0296468 8.36669 0.0889405L0.666689 3.38894C0.262237 3.56228 0 3.95997 0 4.4C0 4.84003 0.262237 5.23772 0.666689 5.41106L3.57541 6.65765C3.68118 6.53781 3.81377 6.4402 3.96669 6.37467L8.36669 4.48895C8.92508 4.24964 9.57175 4.50831 9.81106 5.0667C10.0504 5.62509 9.7917 6.27176 9.23331 6.51107L6.23335 7.79677L8.36669 8.71106C8.64339 8.82965 8.95661 8.82965 9.23331 8.71106L16.9333 5.41106C17.3378 5.23772 17.6 4.84003 17.6 4.4C17.6 3.95997 17.3378 3.56228 16.9333 3.38894L9.23331 0.0889405Z" fill="#4B4B4B"/>
<path d="M1.44105 8.1364L3.3 8.93309V13.4449C2.92295 13.3594 2.53776 13.2954 2.14578 13.2543C1.62903 13.2001 1.22067 12.7918 1.16648 12.275C1.12251 11.8556 1.1 11.4302 1.1 10.9998C1.1 10.0136 1.21815 9.05463 1.44105 8.1364Z" fill="#4B4B4B"/>
<path d="M8.02995 16.0298C7.28979 15.3042 6.43684 14.6942 5.5 14.2286V9.87595L7.50006 10.7331C8.33018 11.0889 9.26982 11.0889 10.0999 10.7331L16.1589 8.1364C16.3818 9.05463 16.5 10.0136 16.5 10.9998C16.5 11.4302 16.4775 11.8556 16.4335 12.275C16.3793 12.7918 15.971 13.2001 15.4542 13.2543C13.1741 13.4934 11.1236 14.5068 9.57005 16.0298C9.14231 16.4491 8.45769 16.4491 8.02995 16.0298Z" fill="#4B4B4B"/>
<path d="M4.4 17.6C5.00751 17.6 5.5 17.1075 5.5 16.5V14.2286C4.8085 13.8849 4.07129 13.6199 3.3 13.4449V16.5C3.3 17.1075 3.79249 17.6 4.4 17.6Z" fill="#4B4B4B" />
</svg>
