<svg width="19" height="20" viewBox="0 0 19 20" fill="none" xmlns="http://www.w3.org/2000/svg">
<path d="M9.80851 1.28816C9.5318 1.16957 9.21859 1.16957 8.94188 1.28816L1.24188 4.58816C0.837432 4.7615 0.575195 5.15919 0.575195 5.59922C0.575195 6.03925 0.837432 6.43694 1.24188 6.61028L4.15061 7.85687C4.25638 7.73703 4.38897 7.63942 4.54188 7.57389L8.94188 5.68817C9.50028 5.44886 10.1469 5.70753 10.3863 6.26592C10.6256 6.82431 10.3669 7.47098 9.80851 7.71029L6.80854 8.99599L8.94188 9.91028C9.21859 10.0289 9.5318 10.0289 9.80851 9.91028L17.5085 6.61028C17.913 6.43694 18.1752 6.03925 18.1752 5.59922C18.1752 5.15919 17.913 4.7615 17.5085 4.58816L9.80851 1.28816Z" fill="#3B3B3B"/>
<path d="M9.80851 1.28816C9.5318 1.16957 9.21859 1.16957 8.94188 1.28816L1.24188 4.58816C0.837432 4.7615 0.575195 5.15919 0.575195 5.59922C0.575195 6.03925 0.837432 6.43694 1.24188 6.61028L4.15061 7.85687C4.25638 7.73703 4.38897 7.63942 4.54188 7.57389L8.94188 5.68817C9.50028 5.44886 10.1469 5.70753 10.3863 6.26592C10.6256 6.82431 10.3669 7.47098 9.80851 7.71029L6.80854 8.99599L8.94188 9.91028C9.21859 10.0289 9.5318 10.0289 9.80851 9.91028L17.5085 6.61028C17.913 6.43694 18.1752 6.03925 18.1752 5.59922C18.1752 5.15919 17.913 4.7615 17.5085 4.58816L9.80851 1.28816Z" fill="url(#paint0_linear_2001_830)"/>
<path d="M2.01624 9.33562L3.8752 10.1323V14.6441C3.49815 14.5586 3.11295 14.4946 2.72097 14.4535C2.20423 14.3993 1.79586 13.991 1.74168 13.4742C1.6977 13.0548 1.6752 12.6294 1.6752 12.199C1.6752 11.2129 1.79335 10.2539 2.01624 9.33562Z" fill="#3B3B3B"/>
<path d="M2.01624 9.33562L3.8752 10.1323V14.6441C3.49815 14.5586 3.11295 14.4946 2.72097 14.4535C2.20423 14.3993 1.79586 13.991 1.74168 13.4742C1.6977 13.0548 1.6752 12.6294 1.6752 12.199C1.6752 11.2129 1.79335 10.2539 2.01624 9.33562Z" fill="url(#paint1_linear_2001_830)"/>
<path d="M8.60515 17.229C7.86498 16.5034 7.01203 15.8935 6.07519 15.4278V11.0752L8.07526 11.9323C8.90537 12.2881 9.84502 12.2881 10.6751 11.9323L16.7341 9.33562C16.957 10.2539 17.0752 11.2129 17.0752 12.199C17.0752 12.6294 17.0527 13.0548 17.0087 13.4742C16.9545 13.991 16.5462 14.3993 16.0294 14.4535C13.7493 14.6926 11.6988 15.706 10.1452 17.229C9.7175 17.6483 9.03289 17.6483 8.60515 17.229Z" fill="#3B3B3B"/>
<path d="M8.60515 17.229C7.86498 16.5034 7.01203 15.8935 6.07519 15.4278V11.0752L8.07526 11.9323C8.90537 12.2881 9.84502 12.2881 10.6751 11.9323L16.7341 9.33562C16.957 10.2539 17.0752 11.2129 17.0752 12.199C17.0752 12.6294 17.0527 13.0548 17.0087 13.4742C16.9545 13.991 16.5462 14.3993 16.0294 14.4535C13.7493 14.6926 11.6988 15.706 10.1452 17.229C9.7175 17.6483 9.03289 17.6483 8.60515 17.229Z" fill="url(#paint2_linear_2001_830)"/>
<path d="M4.97519 18.7992C5.58271 18.7992 6.07519 18.3067 6.07519 17.6992V15.4278C5.38369 15.0841 4.64648 14.8191 3.8752 14.6441V17.6992C3.8752 18.3067 4.36768 18.7992 4.97519 18.7992Z" fill="#3B3B3B"/>
<path d="M4.97519 18.7992C5.58271 18.7992 6.07519 18.3067 6.07519 17.6992V15.4278C5.38369 15.0841 4.64648 14.8191 3.8752 14.6441V17.6992C3.8752 18.3067 4.36768 18.7992 4.97519 18.7992Z" fill="url(#paint3_linear_2001_830)"/>
<path d="M3.8752 14.6441V10.1323L2.01624 9.33562C1.79335 10.2539 1.6752 11.2129 1.6752 12.199C1.6752 12.6294 1.6977 13.0548 1.74168 13.4742C1.79586 13.991 2.20423 14.3993 2.72097 14.4535C3.11295 14.4946 3.49815 14.5586 3.8752 14.6441ZM3.8752 14.6441C4.64648 14.8191 5.38369 15.0841 6.07519 15.4278M3.8752 14.6441V17.6992C3.8752 18.3067 4.36768 18.7992 4.97519 18.7992C5.58271 18.7992 6.07519 18.3067 6.07519 17.6992V15.4278M6.07519 15.4278C7.01203 15.8935 7.86498 16.5034 8.60515 17.229C9.03289 17.6483 9.7175 17.6483 10.1452 17.229C11.6988 15.706 13.7493 14.6926 16.0294 14.4535C16.5462 14.3993 16.9545 13.991 17.0087 13.4742C17.0527 13.0548 17.0752 12.6294 17.0752 12.199C17.0752 11.2129 16.957 10.2539 16.7341 9.33562L10.6751 11.9323C9.84502 12.2881 8.90537 12.2881 8.07526 11.9323L6.07519 11.0752V15.4278ZM8.94188 1.28816C9.21859 1.16957 9.5318 1.16957 9.80851 1.28816L17.5085 4.58816C17.913 4.7615 18.1752 5.15919 18.1752 5.59922C18.1752 6.03925 17.913 6.43694 17.5085 6.61028L9.80851 9.91028C9.5318 10.0289 9.21859 10.0289 8.94188 9.91028L6.80854 8.99599L9.80851 7.71029C10.3669 7.47098 10.6256 6.82431 10.3863 6.26592C10.1469 5.70753 9.50028 5.44886 8.94188 5.68817L4.54188 7.57389C4.38897 7.63942 4.25638 7.73703 4.15061 7.85687L1.24188 6.61028C0.837432 6.43694 0.575195 6.03925 0.575195 5.59922C0.575195 5.15919 0.837432 4.7615 1.24188 4.58816L8.94188 1.28816Z" stroke="#2C2929" stroke-linecap="round" stroke-linejoin="round"/>
<defs>
<linearGradient id="paint0_linear_2001_830" x1="0.568279" y1="18.788" x2="0.568279" y2="1.20493" gradientUnits="userSpaceOnUse">
<stop offset="0.21" stop-color="#313131"/>
<stop offset="1" stop-color="#505050"/>
</linearGradient>
<linearGradient id="paint1_linear_2001_830" x1="0.568279" y1="18.788" x2="0.568279" y2="1.20493" gradientUnits="userSpaceOnUse">
<stop offset="0.21" stop-color="#313131"/>
<stop offset="1" stop-color="#505050"/>
</linearGradient>
<linearGradient id="paint2_linear_2001_830" x1="0.568279" y1="18.788" x2="0.568279" y2="1.20493" gradientUnits="userSpaceOnUse">
<stop offset="0.21" stop-color="#313131"/>
<stop offset="1" stop-color="#505050"/>
</linearGradient>
<linearGradient id="paint3_linear_2001_830" x1="0.568279" y1="18.788" x2="0.568279" y2="1.20493" gradientUnits="userSpaceOnUse">
<stop offset="0.21" stop-color="#313131"/>
<stop offset="1" stop-color="#505050"/>
</linearGradient>
</defs>
</svg>
