<svg width="18" height="18" viewBox="0 0 18 18" fill="none" xmlns="http://www.w3.org/2000/svg">
<path d="M9.65277 0.521401C9.22319 0.0918246 8.52671 0.0918246 8.09713 0.521401L0.397134 8.2214C-0.032443 8.65098 -0.032443 9.34746 0.397134 9.77704C0.82671 10.2066 1.52319 10.2066 1.95277 9.77704L2.27495 9.45485V16.6992C2.27495 17.3067 2.76744 17.7992 3.37495 17.7992H5.57495C6.18246 17.7992 6.67495 17.3067 6.67495 16.6992V14.4992C6.67495 13.8917 7.16744 13.3992 7.77495 13.3992H9.97495C10.5825 13.3992 11.075 13.8917 11.075 14.4992V16.6992C11.075 17.3067 11.5674 17.7992 12.175 17.7992H14.3749C14.9825 17.7992 15.4749 17.3067 15.4749 16.6992V9.45485L15.7971 9.77704C16.2267 10.2066 16.9232 10.2066 17.3528 9.77704C17.7823 9.34746 17.7823 8.65098 17.3528 8.2214L9.65277 0.521401Z" fill="#4B4B4B" />
</svg>
