<svg width="17" height="20" viewBox="0 0 17 20" fill="none" xmlns="http://www.w3.org/2000/svg">
<path fill-rule="evenodd" clip-rule="evenodd" d="M10.0558 0.150577C10.5137 0.29492 10.8251 0.719572 10.8251 1.19969V6.69969L15.2251 6.69969C15.6352 6.69969 16.0113 6.92789 16.2007 7.2917C16.3901 7.6555 16.3614 8.09448 16.1262 8.4305L8.42621 19.4305C8.15088 19.8238 7.65226 19.9931 7.19435 19.8488C6.73644 19.7045 6.42505 19.2798 6.42505 18.7997L6.42505 13.2997H2.02505C1.61489 13.2997 1.23879 13.0715 1.04938 12.7077C0.859958 12.3439 0.888684 11.9049 1.1239 11.5689L8.8239 0.568881C9.09923 0.175553 9.59785 0.00623527 10.0558 0.150577Z" fill="#4B4B4B" />
</svg>
